<?xml version="1.0" encoding="utf-8"?>
<!-- Generator: Adobe Illustrator 27.2.0, SVG Export Plug-In . SVG Version: 6.00 Build 0)  -->
<svg version="1.1" id="Capa_1" xmlns="http://www.w3.org/2000/svg" xmlns:xlink="http://www.w3.org/1999/xlink" x="0px" y="0px"
	 viewBox="0 0 200 70" style="enable-background:new 0 0 200 70;" xml:space="preserve">
<path class="st0" d="M172.2,32.9v4c0,4.5-3.4,8.4-7.9,8.9l-2.1,0.3c1.5,1.8,2.3,4.1,2.3,6.4c0,5.6-4.5,10.1-10,10.1
	c-2.3,0-4.6-0.8-6.4-2.3l-0.2,1.8c-0.6,4.5-4.4,7.9-8.9,7.9h-4c-4.5,0-8.3-3.4-8.9-7.9l-0.2-2c-4.2,3.6-10.6,3.2-14.2-1.1
	c-3.3-3.8-3.3-9.4,0-13.1l-1.9-0.2c-4.5-0.6-7.9-4.4-7.9-8.9v-4c0-4.5,3.4-8.4,7.9-8.9l1.7-0.2c-1.4-1.8-2.1-3.9-2.1-6.1
	c0-5.6,4.5-10.1,10.1-10.1c2.4,0,4.7,0.8,6.5,2.4l0.2-2c0.5-4.5,4.4-7.9,8.9-7.9h4c4.5,0,8.4,3.4,8.9,7.9l0.2,1.8
	c4.3-3.5,10.7-2.8,14.2,1.5c1.5,1.8,2.3,4.1,2.3,6.4c0,2.2-0.7,4.4-2.1,6.1l1.9,0.2C168.9,24.5,172.3,28.4,172.2,32.9z"/>
<path class="st0" d="M92.9,18.9l1.6,3.7c1.8,4.1,0.3,9-3.6,11.3l-1.8,1.1c5,2.4,7.2,8.4,4.8,13.4c-2.1,4.5-7.2,6.8-12,5.4l0.5,1.8
	c1.3,4.3-0.8,9-5,10.8l-3.7,1.6c-4.1,1.8-9,0.3-11.3-3.6l-1-1.7c-1,2.1-2.8,3.8-5,4.8c-5.1,2.3-11.1,0-13.3-5.1
	c-1-2.2-1.1-4.6-0.5-6.9l-1.8,0.6c-4.3,1.3-9-0.8-10.8-5l-1.6-3.7c-1.8-4.1-0.3-9,3.6-11.3l1.5-0.9c-2-1.1-3.5-2.8-4.4-4.8
	c-2.2-5.1,0-11,5.1-13.3c2.2-1,4.6-1.1,6.9-0.5l-0.5-1.9c-1.3-4.3,0.8-8.9,4.9-10.8l3.7-1.6c4.2-1.9,9-0.3,11.4,3.6l1,1.6
	c2.6-4.9,8.7-6.9,13.6-4.3c2,1.1,3.7,2.8,4.6,4.9c0.9,2,1.1,4.3,0.6,6.5l1.8-0.5C86.5,12.6,91.1,14.8,92.9,18.9z"/>
</svg>
