<?xml version="1.0" encoding="utf-8"?>
<!-- Generator: Adobe Illustrator 27.2.0, SVG Export Plug-In . SVG Version: 6.00 Build 0)  -->
<svg version="1.1" id="Capa_1" xmlns="http://www.w3.org/2000/svg" xmlns:xlink="http://www.w3.org/1999/xlink" x="0px" y="0px"
	 viewBox="0 0 800 800" style="enable-background:new 0 0 800 800;" xml:space="preserve">
<g>
	<path d="M427.1,0.8c203,0,369,166.1,369,369v57.7c0,203-166.1,369-369,369h-57.7c-203,0-369-166.1-369-369v-57.7
		c0-203,166.1-369,369-369L427.1,0.8z M405.5,200.8l-5.1,0c-42.8,0-85.5,1.4-85.5,1.4c-62.4,0-113.1,50.6-113.1,113.1
		c0,0-1.3,36.7-1.4,76.1l0,5.2c0,44.1,1.4,89.8,1.4,89.8c0,62.4,50.6,113.1,113.1,113.1c0,0,40,1.4,81.3,1.4
		c44.1,0,91.2-1.4,91.2-1.4c62.4,0,111.7-49.2,111.7-111.7c0,0,1.4-45.1,1.4-88.3l0-10.1c-0.2-38.8-1.4-75.4-1.4-75.4
		c0-62.4-49.2-111.7-111.7-111.7C487.3,202.2,446.6,200.9,405.5,200.8L405.5,200.8z M400.4,236.8c35.1,0,80,1.2,80,1.2
		c51.2,0,82.8,31.6,82.8,82.8c0,0,1.2,44.2,1.2,78.9c0,35.4-1.2,81.2-1.2,81.2c0,51.2-31.6,82.8-82.8,82.8c0,0-39.8,1-74.2,1.1
		l-9.2,0c-33.9,0-75.1-1.2-75.1-1.2c-51.2,0-84.2-33-84.2-84.2c0,0-1.2-45.9-1.2-82.1c0-33.9,1.2-76.5,1.2-76.5
		c0-51.2,33-82.8,84.2-82.8C321.8,238,365.3,236.8,400.4,236.8L400.4,236.8z M400.4,298.4c-56.6,0-102.5,45.9-102.5,102.5
		s45.9,102.5,102.5,102.5s102.5-45.9,102.5-102.5S456.9,298.4,400.4,298.4z M400.4,334.2c36.8,0,66.7,29.8,66.7,66.7
		s-29.8,66.7-66.7,66.7c-36.8,0-66.7-29.8-66.7-66.7S363.5,334.2,400.4,334.2z M507.7,269.9c-13.7,0-24.8,11.1-24.8,24.9
		c0,13.7,11.1,24.9,24.8,24.9s24.8-11.1,24.8-24.9C532.5,281.1,521.4,269.9,507.7,269.9z"/>
</g>
</svg>
