<svg xmlns="http://www.w3.org/2000/svg" viewBox="0 0 1010.9 1019.1">
     <g class="eyebrows">
        <path d="M449.6,444.4a83,83,0,0,0-53.4-39.2,80.6,80.6,0,0,0-34.9.1,83.2,83.2,0,0,0-54.4,42.5,9.5,9.5,0,0,0-.9,6.6,8.7,8.7,0,0,0,3.9,5.1c3.9,2,9.6,1.2,11.7-3.1a66.6,66.6,0,0,1,7.3-11.6l-1.3,1.7A73.4,73.4,0,0,1,341,433.2l-1.7,1.3a75.1,75.1,0,0,1,16.7-9.7l-2,.9a74.3,74.3,0,0,1,18.6-5.1l-2.3.3a67.1,67.1,0,0,1,17.9,0l-2.3-.3a75.1,75.1,0,0,1,18.7,5.1l-2-.9a78.5,78.5,0,0,1,16.8,9.8l-1.7-1.3a79.3,79.3,0,0,1,13,12.9l-1.3-1.7a76.6,76.6,0,0,1,5.6,8.4c2.2,3.9,7.9,5.6,11.7,3.1a8.8,8.8,0,0,0,3.1-11.7h-.2Z" transform="translate(0 0)" fill="#542d04"/>
        <path d="M698,444.4a83,83,0,0,0-53.4-39.2,80.6,80.6,0,0,0-34.9.1,83.2,83.2,0,0,0-54.4,42.5,9.5,9.5,0,0,0-.9,6.6,8.2,8.2,0,0,0,3.9,5.1c3.9,2,9.6,1.2,11.7-3.1a66.6,66.6,0,0,1,7.3-11.6l-1.3,1.7a73.4,73.4,0,0,1,13.4-13.3l-1.7,1.3a75.1,75.1,0,0,1,16.7-9.7l-2,.9a74.3,74.3,0,0,1,18.6-5.1l-2.3.3a67.1,67.1,0,0,1,17.9,0l-2.3-.3a75.1,75.1,0,0,1,18.7,5.1l-2-.9a78.5,78.5,0,0,1,16.8,9.8l-1.7-1.3a79.3,79.3,0,0,1,13,12.9l-1.3-1.7a76.6,76.6,0,0,1,5.6,8.4c1.7,2.9,7.9,5.6,11.7,3.1a8.8,8.8,0,0,0,3.1-11.7H698Z" transform="translate(0 0)" fill="#542d04"/>
    </g>
    <path class="nose" d="M543.3,564.3l-.6-3.1c-3.8-21.3-6.4-38.7-8.5-52.7-5.6-37.1-7.7-51-20.6-55.6a25.2,25.2,0,0,0-16.3,0c-13.7,4.9-15.9,21.5-25.1,91.3-.7,5.5-1.5,11.3-2.3,17.6-3.7,27.7-5.4,40.4,3.6,51.7,7.5,9.5,20.2,15.2,33,15.2h.1a44.6,44.6,0,0,0,6.3-.5c3.1-.4,19-3.5,28.2-17.3S547,584.7,543.3,564.3Z" transform="translate(0 0)" fill="#ef4316"/>
</svg>